<svg width="1613" height="187" viewBox="0 0 1613 187" fill="none" xmlns="http://www.w3.org/2000/svg">
<g filter="url(#filter0_i_20_486)">
<path d="M14.313 2.5H39.1221C45.6463 2.5 50.9351 7.78885 50.9351 14.313V39.1222C50.9351 45.6463 45.6463 50.9351 39.1221 50.9351H14.313C7.78885 50.9351 2.5 45.6463 2.5 39.1222V14.313C2.5 7.78885 7.78885 2.5 14.313 2.5Z" fill="#F0DB4F" stroke="#F0DB4F" stroke-width="5"/>
</g>
<g filter="url(#filter1_i_20_486)">
<path d="M14.313 70.8397H39.1221C44.2655 70.8397 48.4351 75.0092 48.4351 80.1526V104.485C48.4351 109.628 44.2655 113.798 39.1221 113.798H14.313C9.16956 113.798 5 109.628 5 104.485V80.1526C5 75.0092 9.16956 70.8397 14.313 70.8397Z" stroke="#F38020" stroke-width="10"/>
</g>
<g filter="url(#filter2_i_20_486)">
<path d="M14.313 136.202H39.1221C44.2655 136.202 48.4351 140.372 48.4351 145.515V170.324C48.4351 175.468 44.2655 179.637 39.1221 179.637H14.313C9.16956 179.637 5 175.468 5 170.324V145.515C5 140.372 9.16956 136.202 14.313 136.202Z" stroke="#806EE3" stroke-width="10"/>
</g>
<path d="M80.1528 5H104.485C109.628 5 113.798 9.16956 113.798 14.313V39.1222C113.798 44.2656 109.628 48.4351 104.485 48.4351H80.1528C75.0094 48.4351 70.8398 44.2656 70.8398 39.1222V14.313C70.8398 9.16956 75.0094 5 80.1528 5Z" stroke="#E14E1D" stroke-width="10"/>
<g filter="url(#filter3_i_20_486)">
<path d="M80.1528 70.8397H104.485C109.628 70.8397 113.798 75.0092 113.798 80.1526V104.485C113.798 109.628 109.628 113.798 104.485 113.798H80.1528C75.0094 113.798 70.8398 109.628 70.8398 104.485V80.1526C70.8398 75.0092 75.0094 70.8397 80.1528 70.8397Z" stroke="#00DC82" stroke-width="10"/>
</g>
<g filter="url(#filter4_i_20_486)">
<path d="M80.1528 133.702H104.485C111.009 133.702 116.298 138.991 116.298 145.515V170.324C116.298 176.849 111.009 182.137 104.485 182.137H80.1528C73.6287 182.137 68.3398 176.849 68.3398 170.324V145.515C68.3398 138.991 73.6287 133.702 80.1528 133.702Z" fill="#953CAD" stroke="#953CAD" stroke-width="5"/>
</g>
<g filter="url(#filter5_i_20_486)">
<path d="M145.515 2.5H170.324C176.848 2.5 182.137 7.78885 182.137 14.313V39.1222C182.137 45.6463 176.848 50.9351 170.324 50.9351H145.515C138.991 50.9351 133.702 45.6463 133.702 39.1222V14.313C133.702 7.78885 138.991 2.5 145.515 2.5Z" fill="#007ACC" stroke="#007ACC" stroke-width="5"/>
</g>
<g filter="url(#filter6_i_20_486)">
<path d="M145.515 68.3397H170.324C176.848 68.3397 182.137 73.6285 182.137 80.1526V104.485C182.137 111.009 176.848 116.298 170.324 116.298H145.515C138.991 116.298 133.702 111.009 133.702 104.485V80.1526C133.702 73.6285 138.991 68.3397 145.515 68.3397Z" fill="#00B4E0" stroke="#00B4E0" stroke-width="5"/>
</g>
<g filter="url(#filter7_i_20_486)">
<path d="M145.515 136.202H170.324C175.468 136.202 179.637 140.372 179.637 145.515V170.324C179.637 175.468 175.468 179.637 170.324 179.637H145.515C140.372 179.637 136.202 175.468 136.202 170.324V145.515C136.202 140.372 140.372 136.202 145.515 136.202Z" stroke="#654FF0" stroke-width="10"/>
</g>
<path d="M290.375 43.15C299.572 43.15 307.735 44.5967 314.865 47.49C322.098 50.3833 328.35 54.7233 333.62 60.51L320.91 77.715C316.467 73.065 311.713 69.6033 306.65 67.33C301.69 64.9533 296.11 63.765 289.91 63.765C286.293 63.765 283.348 64.1783 281.075 65.005C278.905 65.8317 277.303 66.9683 276.27 68.415C275.237 69.8617 274.72 71.515 274.72 73.375C274.72 75.9583 275.805 77.9733 277.975 79.42C280.248 80.7633 283.245 81.8483 286.965 82.675L303.705 86.55C313.728 88.8233 321.065 92.285 325.715 96.935C330.365 101.482 332.69 107.527 332.69 115.07C332.69 122.303 330.83 128.452 327.11 133.515C323.493 138.475 318.482 142.247 312.075 144.83C305.668 147.31 298.383 148.55 290.22 148.55C283.607 148.55 277.303 147.827 271.31 146.38C265.317 144.83 259.84 142.66 254.88 139.87C250.023 137.08 245.89 133.877 242.48 130.26L255.19 112.435C257.773 115.432 260.925 118.118 264.645 120.495C268.365 122.768 272.395 124.577 276.735 125.92C281.075 127.263 285.467 127.935 289.91 127.935C293.423 127.935 296.265 127.573 298.435 126.85C300.708 126.127 302.413 125.042 303.55 123.595C304.687 122.148 305.255 120.443 305.255 118.48C305.255 116.31 304.48 114.45 302.93 112.9C301.483 111.35 298.745 110.11 294.715 109.18L276.27 104.995C271.207 103.858 266.453 102.257 262.01 100.19C257.567 98.02 253.95 95.0233 251.16 91.2C248.37 87.3767 246.975 82.4683 246.975 76.475C246.975 70.0683 248.68 64.385 252.09 59.425C255.603 54.3617 260.615 50.3833 267.125 47.49C273.635 44.5967 281.385 43.15 290.375 43.15ZM431.861 69.5L395.126 109.18L390.166 110.575L368.311 135.375L368.156 108.405L402.566 69.5H431.861ZM373.891 36.64V147H347.541V36.64H373.891ZM399.156 92.75L433.566 147H404.426L381.951 108.25L399.156 92.75ZM469.555 69.5V147H443.205V69.5H469.555ZM456.38 60.51C451.007 60.51 447.08 59.5283 444.6 57.565C442.223 55.4983 441.035 52.295 441.035 47.955C441.035 43.5117 442.223 40.3083 444.6 38.345C447.08 36.2783 451.007 35.245 456.38 35.245C461.753 35.245 465.628 36.2783 468.005 38.345C470.485 40.3083 471.725 43.5117 471.725 47.955C471.725 52.295 470.485 55.4983 468.005 57.565C465.628 59.5283 461.753 60.51 456.38 60.51ZM514.352 36.64V120.65C514.352 123.75 514.817 126.127 515.747 127.78C516.781 129.33 518.641 130.105 521.327 130.105C522.774 130.105 524.014 130.002 525.047 129.795C526.081 129.588 527.269 129.278 528.612 128.865L526.907 144.675C525.151 145.812 522.722 146.742 519.622 147.465C516.626 148.188 513.784 148.55 511.097 148.55C502.314 148.55 496.269 146.432 492.962 142.195C489.656 137.855 488.002 131.81 488.002 124.06V36.64H514.352ZM564.304 36.64V120.65C564.304 123.75 564.769 126.127 565.699 127.78C566.732 129.33 568.592 130.105 571.279 130.105C572.725 130.105 573.965 130.002 574.999 129.795C576.032 129.588 577.22 129.278 578.564 128.865L576.859 144.675C575.102 145.812 572.674 146.742 569.574 147.465C566.577 148.188 563.735 148.55 561.049 148.55C552.265 148.55 546.22 146.432 542.914 142.195C539.607 137.855 537.954 131.81 537.954 124.06V36.64H564.304ZM655.636 44.7V147H628.976V44.7H655.636ZM711.521 67.95C719.271 67.95 725.729 69.0867 730.896 71.36C736.063 73.53 740.093 76.4233 742.986 80.04C745.879 83.6567 747.739 87.635 748.566 91.975L724.231 100.035C723.508 95.4883 722.216 92.13 720.356 89.96C718.599 87.79 715.913 86.705 712.296 86.705C709.093 86.705 706.406 87.48 704.236 89.03C702.066 90.58 700.413 92.9567 699.276 96.16C698.243 99.3633 697.726 103.497 697.726 108.56C697.726 113.623 698.294 117.757 699.431 120.96C700.671 124.06 702.376 126.333 704.546 127.78C706.819 129.123 709.454 129.795 712.451 129.795C714.931 129.795 716.998 129.33 718.651 128.4C720.408 127.367 721.803 125.92 722.836 124.06C723.869 122.2 724.593 119.927 725.006 117.24L748.721 124.835C747.998 129.278 746.086 133.308 742.986 136.925C739.886 140.542 735.753 143.383 730.586 145.45C725.523 147.517 719.529 148.55 712.606 148.55C704.236 148.55 696.951 146.948 690.751 143.745C684.551 140.542 679.746 135.943 676.336 129.95C672.926 123.957 671.221 116.723 671.221 108.25C671.221 99.7767 672.926 92.5433 676.336 86.55C679.746 80.5567 684.448 75.9583 690.441 72.755C696.538 69.5517 703.564 67.95 711.521 67.95ZM798.712 67.95C806.772 67.95 813.85 69.5517 819.947 72.755C826.044 75.9583 830.797 80.5567 834.207 86.55C837.72 92.5433 839.477 99.7767 839.477 108.25C839.477 116.723 837.72 123.957 834.207 129.95C830.797 135.943 826.044 140.542 819.947 143.745C813.85 146.948 806.772 148.55 798.712 148.55C790.755 148.55 783.729 146.948 777.632 143.745C771.535 140.542 766.782 135.943 763.372 129.95C759.962 123.957 758.257 116.723 758.257 108.25C758.257 99.7767 759.962 92.5433 763.372 86.55C766.782 80.5567 771.535 75.9583 777.632 72.755C783.729 69.5517 790.755 67.95 798.712 67.95ZM798.712 86.705C795.819 86.705 793.287 87.48 791.117 89.03C789.05 90.4767 787.449 92.8017 786.312 96.005C785.279 99.105 784.762 103.187 784.762 108.25C784.762 113.313 785.279 117.447 786.312 120.65C787.449 123.75 789.05 126.075 791.117 127.625C793.287 129.072 795.819 129.795 798.712 129.795C801.709 129.795 804.24 129.072 806.307 127.625C808.477 126.075 810.13 123.698 811.267 120.495C812.404 117.292 812.972 113.21 812.972 108.25C812.972 103.187 812.404 99.105 811.267 96.005C810.13 92.8017 808.477 90.4767 806.307 89.03C804.24 87.48 801.709 86.705 798.712 86.705ZM854.318 147V69.5H877.878L879.273 96.16L876.328 93.215C877.878 84.9483 881.133 78.6967 886.093 74.46C891.053 70.12 897.305 67.95 904.848 67.95C910.118 67.95 914.717 68.9833 918.643 71.05C922.57 73.1167 925.618 76.2167 927.788 80.35C930.062 84.38 931.198 89.3917 931.198 95.385V147H904.848V102.36C904.848 97.09 903.867 93.4217 901.903 91.355C899.94 89.185 897.357 88.1 894.153 88.1C891.777 88.1 889.555 88.72 887.488 89.96C885.422 91.0967 883.768 92.9567 882.528 95.54C881.288 98.1233 880.668 101.585 880.668 105.925V147H854.318ZM981.765 148.55C974.015 148.55 966.885 147.31 960.375 144.83C953.968 142.247 948.543 138.578 944.1 133.825L956.345 119.255C958.928 122.562 962.338 125.352 966.575 127.625C970.915 129.795 975.616 130.88 980.68 130.88C983.676 130.88 986.208 130.415 988.275 129.485C990.341 128.555 991.375 127.108 991.375 125.145C991.375 123.698 990.858 122.562 989.825 121.735C988.791 120.805 986.776 120.03 983.78 119.41L973.24 117.24C963.526 115.173 956.655 112.228 952.625 108.405C948.698 104.582 946.735 99.5183 946.735 93.215C946.735 88.9783 948.026 84.9483 950.61 81.125C953.193 77.3017 957.12 74.15 962.39 71.67C967.763 69.19 974.531 67.95 982.695 67.95C990.548 67.95 997.42 69.1383 1003.31 71.515C1009.2 73.7883 1013.9 77.0433 1017.41 81.28L1005.01 95.54C1002.53 92.44 999.331 90.0117 995.405 88.255C991.581 86.4983 987.758 85.62 983.935 85.62C981.455 85.62 979.388 85.8783 977.735 86.395C976.185 86.8083 974.996 87.4283 974.17 88.255C973.343 89.0817 972.93 90.115 972.93 91.355C972.93 92.8017 973.601 94.0417 974.945 95.075C976.288 96.005 978.561 96.78 981.765 97.4L995.715 100.19C1003.57 101.74 1009.2 104.427 1012.61 108.25C1016.12 111.97 1017.88 116.517 1017.88 121.89C1017.88 129.433 1014.88 135.788 1008.89 140.955C1002.9 146.018 993.855 148.55 981.765 148.55ZM1077.78 147V44.7H1126.6C1138.9 44.7 1147.99 47.0767 1153.88 51.83C1159.77 56.5833 1162.72 63.4033 1162.72 72.29C1162.72 77.9733 1161.01 82.9333 1157.6 87.17C1154.3 91.4067 1149.23 94.0933 1142.41 95.23V95.385C1150.06 96.4183 1155.74 99.1567 1159.46 103.6C1163.29 108.043 1165.2 113.313 1165.2 119.41C1165.2 128.193 1162.15 135.013 1156.05 139.87C1150.06 144.623 1141.07 147 1129.08 147H1077.78ZM1103.51 128.245H1124.43C1128.98 128.245 1132.34 127.263 1134.51 125.3C1136.78 123.337 1137.92 120.495 1137.92 116.775C1137.92 113.158 1136.78 110.42 1134.51 108.56C1132.34 106.597 1128.98 105.615 1124.43 105.615H1103.51V128.245ZM1103.51 86.55H1121.95C1126.4 86.55 1129.76 85.62 1132.03 83.76C1134.3 81.7967 1135.44 79.0067 1135.44 75.39C1135.44 71.67 1134.3 68.88 1132.03 67.02C1129.76 65.16 1126.4 64.23 1121.95 64.23H1103.51V86.55ZM1205.95 148.55C1200.78 148.55 1196.18 147.672 1192.15 145.915C1188.22 144.055 1185.12 141.11 1182.85 137.08C1180.68 133.05 1179.6 127.78 1179.6 121.27V69.5H1205.95V115.07C1205.95 119.513 1206.77 122.872 1208.43 125.145C1210.18 127.315 1213.02 128.4 1216.95 128.4C1218.71 128.4 1220.36 128.09 1221.91 127.47C1223.56 126.747 1224.96 125.713 1226.1 124.37C1227.34 122.923 1228.27 121.115 1228.89 118.945C1229.61 116.672 1229.97 114.037 1229.97 111.04V69.5H1256.32V147H1232.76L1231.99 132.43C1230.44 136.047 1228.37 139.043 1225.79 141.42C1223.31 143.797 1220.41 145.605 1217.11 146.845C1213.8 147.982 1210.08 148.55 1205.95 148.55ZM1301.62 69.5V147H1275.27V69.5H1301.62ZM1288.45 60.51C1283.07 60.51 1279.15 59.5283 1276.67 57.565C1274.29 55.4983 1273.1 52.295 1273.1 47.955C1273.1 43.5117 1274.29 40.3083 1276.67 38.345C1279.15 36.2783 1283.07 35.245 1288.45 35.245C1293.82 35.245 1297.69 36.2783 1300.07 38.345C1302.55 40.3083 1303.79 43.5117 1303.79 47.955C1303.79 52.295 1302.55 55.4983 1300.07 57.565C1297.69 59.5283 1293.82 60.51 1288.45 60.51ZM1346.42 36.64V120.65C1346.42 123.75 1346.88 126.127 1347.81 127.78C1348.85 129.33 1350.71 130.105 1353.39 130.105C1354.84 130.105 1356.08 130.002 1357.11 129.795C1358.15 129.588 1359.33 129.278 1360.68 128.865L1358.97 144.675C1357.22 145.812 1354.79 146.742 1351.69 147.465C1348.69 148.188 1345.85 148.55 1343.16 148.55C1334.38 148.55 1328.33 146.432 1325.03 142.195C1321.72 137.855 1320.07 131.81 1320.07 124.06V36.64H1346.42ZM1398.38 148.55C1392.08 148.55 1386.55 147 1381.8 143.9C1377.15 140.697 1373.48 136.098 1370.79 130.105C1368.21 124.112 1366.92 116.93 1366.92 108.56C1366.92 99.88 1368.26 92.5433 1370.95 86.55C1373.74 80.4533 1377.51 75.855 1382.26 72.755C1387.12 69.5517 1392.7 67.95 1399 67.95C1406.03 67.95 1411.66 70.0683 1415.9 74.305C1420.14 78.5417 1422.82 84.0183 1423.96 90.735L1421.48 93.99V36.64H1447.83V147H1424.27L1422.56 120.65L1425.66 122.975C1424.94 128.038 1423.34 132.533 1420.86 136.46C1418.48 140.283 1415.38 143.28 1411.56 145.45C1407.74 147.517 1403.34 148.55 1398.38 148.55ZM1407.53 129.175C1410.42 129.175 1412.9 128.348 1414.97 126.695C1417.04 125.042 1418.64 122.665 1419.77 119.565C1420.91 116.362 1421.48 112.435 1421.48 107.785C1421.48 103.445 1420.91 99.7767 1419.77 96.78C1418.74 93.68 1417.19 91.355 1415.12 89.805C1413.06 88.1517 1410.58 87.325 1407.68 87.325C1403.24 87.325 1399.73 89.03 1397.14 92.44C1394.66 95.85 1393.42 101.12 1393.42 108.25C1393.42 115.38 1394.66 120.65 1397.14 124.06C1399.62 127.47 1403.09 129.175 1407.53 129.175ZM1504.1 148.55C1495.63 148.55 1488.29 147 1482.09 143.9C1475.89 140.697 1471.09 136.098 1467.68 130.105C1464.37 124.008 1462.72 116.723 1462.72 108.25C1462.72 99.6733 1464.42 92.3883 1467.83 86.395C1471.24 80.4017 1475.95 75.855 1481.94 72.755C1488.04 69.5517 1495.01 67.95 1502.86 67.95C1510.92 67.95 1517.8 69.5517 1523.48 72.755C1529.16 75.855 1533.5 80.195 1536.5 85.775C1539.5 91.2517 1540.99 97.555 1540.99 104.685C1540.99 106.648 1540.94 108.56 1540.84 110.42C1540.74 112.177 1540.58 113.675 1540.37 114.915H1479.77V100.81H1528.75L1516.19 105.615C1516.19 101.482 1515.68 98.02 1514.64 95.23C1513.71 92.3367 1512.27 90.1667 1510.3 88.72C1508.34 87.17 1505.86 86.395 1502.86 86.395C1499.66 86.395 1496.92 87.17 1494.65 88.72C1492.38 90.27 1490.67 92.6983 1489.53 96.005C1488.4 99.3117 1487.83 103.548 1487.83 108.715C1487.83 113.778 1488.45 117.912 1489.69 121.115C1491.03 124.215 1492.89 126.488 1495.27 127.935C1497.75 129.278 1500.69 129.95 1504.1 129.95C1507.82 129.95 1510.87 129.175 1513.25 127.625C1515.63 126.075 1517.33 123.905 1518.36 121.115L1539.44 128.09C1538 132.533 1535.47 136.305 1531.85 139.405C1528.34 142.402 1524.15 144.675 1519.29 146.225C1514.54 147.775 1509.48 148.55 1504.1 148.55ZM1555.75 147V69.5H1579L1580.09 86.24C1581.95 80.4533 1584.79 75.9583 1588.61 72.755C1592.44 69.5517 1597.24 67.95 1603.03 67.95C1604.99 67.95 1606.65 68.105 1607.99 68.415C1609.33 68.725 1610.42 69.1383 1611.24 69.655L1608.61 91.355C1607.78 91.045 1606.59 90.735 1605.04 90.425C1603.49 90.115 1601.53 89.96 1599.15 89.96C1596.16 89.96 1593.32 90.6317 1590.63 91.975C1588.05 93.3183 1585.98 95.3333 1584.43 98.02C1582.88 100.603 1582.1 103.91 1582.1 107.94V147H1555.75Z" fill="#242938"/>
<defs>
<filter id="filter0_i_20_486" x="0" y="-6" width="53.4351" height="59.4351" filterUnits="userSpaceOnUse" color-interpolation-filters="sRGB">
<feFlood flood-opacity="0" result="BackgroundImageFix"/>
<feBlend mode="normal" in="SourceGraphic" in2="BackgroundImageFix" result="shape"/>
<feColorMatrix in="SourceAlpha" type="matrix" values="0 0 0 0 0 0 0 0 0 0 0 0 0 0 0 0 0 0 127 0" result="hardAlpha"/>
<feOffset dy="-6"/>
<feGaussianBlur stdDeviation="3"/>
<feComposite in2="hardAlpha" operator="arithmetic" k2="-1" k3="1"/>
<feColorMatrix type="matrix" values="0 0 0 0 0 0 0 0 0 0 0 0 0 0 0 0 0 0 0.25 0"/>
<feBlend mode="normal" in2="shape" result="effect1_innerShadow_20_486"/>
</filter>
<filter id="filter1_i_20_486" x="0" y="59.8397" width="53.4351" height="58.958" filterUnits="userSpaceOnUse" color-interpolation-filters="sRGB">
<feFlood flood-opacity="0" result="BackgroundImageFix"/>
<feBlend mode="normal" in="SourceGraphic" in2="BackgroundImageFix" result="shape"/>
<feColorMatrix in="SourceAlpha" type="matrix" values="0 0 0 0 0 0 0 0 0 0 0 0 0 0 0 0 0 0 127 0" result="hardAlpha"/>
<feOffset dy="-6"/>
<feGaussianBlur stdDeviation="3"/>
<feComposite in2="hardAlpha" operator="arithmetic" k2="-1" k3="1"/>
<feColorMatrix type="matrix" values="0 0 0 0 0 0 0 0 0 0 0 0 0 0 0 0 0 0 0.25 0"/>
<feBlend mode="normal" in2="shape" result="effect1_innerShadow_20_486"/>
</filter>
<filter id="filter2_i_20_486" x="0" y="125.202" width="53.4351" height="59.4351" filterUnits="userSpaceOnUse" color-interpolation-filters="sRGB">
<feFlood flood-opacity="0" result="BackgroundImageFix"/>
<feBlend mode="normal" in="SourceGraphic" in2="BackgroundImageFix" result="shape"/>
<feColorMatrix in="SourceAlpha" type="matrix" values="0 0 0 0 0 0 0 0 0 0 0 0 0 0 0 0 0 0 127 0" result="hardAlpha"/>
<feOffset dy="-6"/>
<feGaussianBlur stdDeviation="3"/>
<feComposite in2="hardAlpha" operator="arithmetic" k2="-1" k3="1"/>
<feColorMatrix type="matrix" values="0 0 0 0 0 0 0 0 0 0 0 0 0 0 0 0 0 0 0.25 0"/>
<feBlend mode="normal" in2="shape" result="effect1_innerShadow_20_486"/>
</filter>
<filter id="filter3_i_20_486" x="65.8398" y="59.8397" width="52.958" height="58.958" filterUnits="userSpaceOnUse" color-interpolation-filters="sRGB">
<feFlood flood-opacity="0" result="BackgroundImageFix"/>
<feBlend mode="normal" in="SourceGraphic" in2="BackgroundImageFix" result="shape"/>
<feColorMatrix in="SourceAlpha" type="matrix" values="0 0 0 0 0 0 0 0 0 0 0 0 0 0 0 0 0 0 127 0" result="hardAlpha"/>
<feOffset dy="-6"/>
<feGaussianBlur stdDeviation="3"/>
<feComposite in2="hardAlpha" operator="arithmetic" k2="-1" k3="1"/>
<feColorMatrix type="matrix" values="0 0 0 0 0 0 0 0 0 0 0 0 0 0 0 0 0 0 0.25 0"/>
<feBlend mode="normal" in2="shape" result="effect1_innerShadow_20_486"/>
</filter>
<filter id="filter4_i_20_486" x="65.8398" y="125.202" width="52.958" height="59.4351" filterUnits="userSpaceOnUse" color-interpolation-filters="sRGB">
<feFlood flood-opacity="0" result="BackgroundImageFix"/>
<feBlend mode="normal" in="SourceGraphic" in2="BackgroundImageFix" result="shape"/>
<feColorMatrix in="SourceAlpha" type="matrix" values="0 0 0 0 0 0 0 0 0 0 0 0 0 0 0 0 0 0 127 0" result="hardAlpha"/>
<feOffset dy="-6"/>
<feGaussianBlur stdDeviation="3"/>
<feComposite in2="hardAlpha" operator="arithmetic" k2="-1" k3="1"/>
<feColorMatrix type="matrix" values="0 0 0 0 0 0 0 0 0 0 0 0 0 0 0 0 0 0 0.25 0"/>
<feBlend mode="normal" in2="shape" result="effect1_innerShadow_20_486"/>
</filter>
<filter id="filter5_i_20_486" x="131.202" y="-6" width="53.4351" height="59.4351" filterUnits="userSpaceOnUse" color-interpolation-filters="sRGB">
<feFlood flood-opacity="0" result="BackgroundImageFix"/>
<feBlend mode="normal" in="SourceGraphic" in2="BackgroundImageFix" result="shape"/>
<feColorMatrix in="SourceAlpha" type="matrix" values="0 0 0 0 0 0 0 0 0 0 0 0 0 0 0 0 0 0 127 0" result="hardAlpha"/>
<feOffset dy="-6"/>
<feGaussianBlur stdDeviation="3"/>
<feComposite in2="hardAlpha" operator="arithmetic" k2="-1" k3="1"/>
<feColorMatrix type="matrix" values="0 0 0 0 0 0 0 0 0 0 0 0 0 0 0 0 0 0 0.25 0"/>
<feBlend mode="normal" in2="shape" result="effect1_innerShadow_20_486"/>
</filter>
<filter id="filter6_i_20_486" x="131.202" y="59.8397" width="53.4351" height="58.958" filterUnits="userSpaceOnUse" color-interpolation-filters="sRGB">
<feFlood flood-opacity="0" result="BackgroundImageFix"/>
<feBlend mode="normal" in="SourceGraphic" in2="BackgroundImageFix" result="shape"/>
<feColorMatrix in="SourceAlpha" type="matrix" values="0 0 0 0 0 0 0 0 0 0 0 0 0 0 0 0 0 0 127 0" result="hardAlpha"/>
<feOffset dy="-6"/>
<feGaussianBlur stdDeviation="3"/>
<feComposite in2="hardAlpha" operator="arithmetic" k2="-1" k3="1"/>
<feColorMatrix type="matrix" values="0 0 0 0 0 0 0 0 0 0 0 0 0 0 0 0 0 0 0.25 0"/>
<feBlend mode="normal" in2="shape" result="effect1_innerShadow_20_486"/>
</filter>
<filter id="filter7_i_20_486" x="131.202" y="125.202" width="53.4351" height="59.4351" filterUnits="userSpaceOnUse" color-interpolation-filters="sRGB">
<feFlood flood-opacity="0" result="BackgroundImageFix"/>
<feBlend mode="normal" in="SourceGraphic" in2="BackgroundImageFix" result="shape"/>
<feColorMatrix in="SourceAlpha" type="matrix" values="0 0 0 0 0 0 0 0 0 0 0 0 0 0 0 0 0 0 127 0" result="hardAlpha"/>
<feOffset dy="-6"/>
<feGaussianBlur stdDeviation="3"/>
<feComposite in2="hardAlpha" operator="arithmetic" k2="-1" k3="1"/>
<feColorMatrix type="matrix" values="0 0 0 0 0 0 0 0 0 0 0 0 0 0 0 0 0 0 0.25 0"/>
<feBlend mode="normal" in2="shape" result="effect1_innerShadow_20_486"/>
</filter>
</defs>
</svg>
